<svg width="1000" height="139" viewBox="0 0 1000 139" fill="none" xmlns="http://www.w3.org/2000/svg">
<path fill-rule="evenodd" clip-rule="evenodd" d="M132.568 0.0154626C136.825 0.0140486 141.105 0.012627 145.416 0.012627C127.933 23.2019 110.613 46.1643 93.2298 69.2024C110.474 92.1711 127.687 115.102 145.101 138.304H142.454C138.448 138.304 134.442 138.301 130.436 138.299C120.021 138.293 109.607 138.286 99.1922 138.323C95.2656 138.335 92.2781 136.823 89.9272 133.671C82.8373 124.152 75.7096 114.654 68.5821 105.156C66.0534 101.786 63.5247 98.4159 60.9977 95.0453C60.8563 94.8614 60.7108 94.6795 60.5492 94.4773C60.4228 94.3191 60.2864 94.1485 60.1342 93.9549C60.012 94.1002 59.894 94.2353 59.7805 94.3653C59.5839 94.5906 59.4008 94.8003 59.233 95.0201C57.5776 97.2262 55.9211 99.4311 54.2645 101.636C49.5317 107.935 44.7992 114.234 40.0979 120.56C38.1945 123.126 35.7931 124.311 32.5788 124.292C25.1859 124.237 17.7897 124.245 10.3951 124.254C7.67139 124.257 4.9479 124.26 2.22486 124.26H0.296228C0.469348 124.014 0.616999 123.801 0.750129 123.609C0.961122 123.304 1.13564 123.052 1.31727 122.804C3.65488 119.69 5.99229 116.574 8.32979 113.459C19.0761 99.137 29.8242 84.8125 40.6021 70.5134C41.3837 69.4734 41.3458 68.862 40.5832 67.8472C29.1559 52.7702 17.7619 37.6648 6.36807 22.5597C4.63408 20.2608 2.9001 17.9621 1.166 15.6634C0.98865 15.4258 0.81485 15.1864 0.614419 14.9103C0.437339 14.6664 0.239471 14.3939 0 14.0687H1.92863C4.7513 14.0687 7.57447 14.0746 10.398 14.0804C17.6934 14.0957 24.9911 14.1109 32.2888 14.0245C35.8247 13.9867 38.3394 15.3293 40.413 18.1405C44.821 24.1225 49.2924 30.0601 53.7642 35.9983C55.5969 38.432 57.4297 40.8658 59.2582 43.3027C59.4319 43.5328 59.6115 43.757 59.8178 44.0144C59.9109 44.1306 60.0095 44.2535 60.1153 44.3868C61.4049 42.6673 62.6874 40.9579 63.9656 39.2541C65.8735 36.7111 67.7719 34.1808 69.6703 31.6482C71.5938 29.088 73.5193 26.5299 75.4448 23.972C80.3267 17.4863 85.2078 11.0017 90.0533 4.48787C92.3348 1.42453 95.2782 -0.00628242 99.0788 2.0732e-05C110.19 0.0228953 121.299 0.0192056 132.568 0.0154626ZM121.435 126.254C121.248 126.018 121.138 125.878 121.031 125.735C118.541 122.417 116.05 119.098 113.56 115.78C102.244 100.699 90.9278 85.6185 79.5781 70.5638C78.7588 69.4734 78.8155 68.8242 79.6033 67.7842C90.9559 52.7914 102.279 37.773 113.6 22.7571C116.062 19.491 118.524 16.2249 120.987 12.9593C121.158 12.731 121.311 12.4895 121.495 12.1991C121.595 12.0404 121.705 11.8672 121.832 11.6735C120.03 11.6735 118.244 11.6751 116.47 11.6766C111.195 11.6814 106.025 11.686 100.856 11.6483C99.7468 11.6419 99.0661 11.9634 98.3918 12.8648C91.1815 22.5102 83.9471 32.1383 76.7141 41.7645C74.1912 45.1221 71.6685 48.4794 69.1471 51.8372C67.1395 54.5123 65.1332 57.1888 63.1244 59.8686C60.8261 62.9347 58.5245 66.005 56.214 69.0826C56.2537 69.1399 56.2926 69.1961 56.3309 69.2514C56.5536 69.5731 56.7542 69.8628 56.964 70.1478C62.7121 77.8251 68.4601 85.5023 74.2082 93.1733C82.2883 103.945 90.3684 114.717 98.4737 125.471C98.8455 125.956 99.4884 126.548 100.012 126.555C105.868 126.612 111.725 126.609 117.767 126.606C119.073 126.606 120.387 126.605 121.712 126.605C121.603 126.467 121.513 126.352 121.435 126.254ZM429.152 104.118H426.309H412.664H387.079C376.921 104.118 369 101.616 363.314 96.6131C357.629 91.61 354.786 84.3705 354.786 74.8947C354.786 65.3432 357.629 58.0658 363.314 53.0626C369 48.0594 376.921 45.5578 387.079 45.5578H412.664V22.816H429.152V104.118ZM412.664 58.6343V91.0414H387.079C382.152 91.0414 378.362 89.7148 375.708 87.0616C373.131 84.3326 371.842 80.2769 371.842 74.8947C371.842 69.4367 373.131 65.3811 375.708 62.7278C378.362 59.9988 382.152 58.6343 387.079 58.6343H412.664ZM694.116 104.687C683.958 104.687 676.036 102.185 670.351 97.182C664.665 92.103 661.823 84.674 661.823 74.8951C661.823 65.0403 664.665 57.6113 670.351 52.6081C676.036 47.5291 683.958 44.9896 694.116 44.9896H715.152C725.31 44.9896 733.232 47.5291 738.917 52.6081C744.603 57.6113 747.446 65.0403 747.446 74.8951C747.446 84.674 744.603 92.103 738.917 97.182C733.232 102.185 725.31 104.687 715.152 104.687H694.116ZM694.116 91.6103H715.152C720.08 91.6103 723.832 90.2458 726.409 87.5168C729.063 84.7878 730.389 80.5805 730.389 74.8951C730.389 69.1338 729.063 64.8887 726.409 62.1596C723.832 59.4306 720.08 58.0661 715.152 58.0661H694.116C689.189 58.0661 685.398 59.4306 682.745 62.1596C680.168 64.8887 678.879 69.1338 678.879 74.8951C678.879 80.5805 680.168 84.7878 682.745 87.5168C685.398 90.2458 689.189 91.6103 694.116 91.6103ZM869.899 104.687C859.741 104.687 851.819 102.185 846.134 97.182C840.448 92.103 837.606 84.674 837.606 74.8951C837.606 65.0403 840.448 57.6113 846.134 52.6081C851.819 47.5291 859.741 44.9896 869.899 44.9896H898.326C904.997 44.9896 910.076 46.5815 913.563 49.7654C917.126 52.8734 918.908 57.346 918.908 63.183C918.908 75.0846 912.047 81.0354 898.326 81.0354H855.344C856.936 88.0853 861.788 91.6103 869.899 91.6103H915.951V104.687H869.899ZM869.899 58.0661C862.091 58.0661 857.277 61.3637 855.458 67.9588H897.53C899.046 67.9588 900.221 67.504 901.055 66.5943C901.965 65.6846 902.42 64.4338 902.42 62.8419C902.42 59.6581 900.79 58.0661 897.53 58.0661H869.899ZM942.35 129.703V116.626H976.69C981.238 116.626 983.512 114.314 983.512 109.69V104.118H948.376C941.705 104.118 936.816 102.45 933.708 99.1149C930.675 95.7794 929.159 91.4585 929.159 86.152V45.5579H945.647V84.219C945.647 88.7673 947.921 91.0415 952.47 91.0415H982.944V45.5579H1000V111.737C1000 117.119 998.446 121.44 995.338 124.699C992.23 128.035 987.378 129.703 980.783 129.703H942.35ZM757.707 45.5579V104.118H774.195V58.6344H804.669C809.217 58.6344 811.491 60.9086 811.491 65.457V104.118H827.979V63.5239C827.979 58.1417 826.425 53.8208 823.317 50.5611C820.285 47.2256 815.433 45.5579 808.762 45.5579H757.707ZM556.94 45.5579V104.118H573.428V58.6344H596.283V104.118H612.771V58.6344H628.576C633.276 58.6344 635.626 60.9465 635.626 65.5707V104.118H652.114V63.5239C652.114 58.1417 650.56 53.8208 647.452 50.5611C644.344 47.2256 639.455 45.5579 632.784 45.5579H556.94ZM525.416 104.118V87.8577H543.61V104.118H525.416ZM458.619 74.8947L436.56 104.118H455.89L472.833 81.3761H481.02L498.19 104.118H517.407L495.461 74.8947L517.407 45.6715H498.19L481.134 68.2996H472.833L455.89 45.6715H436.56L458.619 74.8947ZM270.401 91.6103V104.687H329.075C334.912 104.687 339.422 103.057 342.606 99.7974C345.79 96.4619 347.382 91.8377 347.382 85.9248C347.382 80.0878 345.79 75.6531 342.606 72.6209C339.498 69.5128 334.987 67.9588 329.075 67.9588H290.868C289.428 67.9588 288.253 67.504 287.343 66.5943C286.434 65.6846 285.979 64.4338 285.979 62.8419C285.979 59.6581 287.609 58.0661 290.868 58.0661H341.924V44.9896H290.072C283.401 44.9896 278.285 46.5815 274.722 49.7654C271.235 52.8734 269.491 57.346 269.491 63.183C269.491 68.9443 271.235 73.3789 274.722 76.487C278.209 79.5192 283.326 81.0354 290.072 81.0354H326.118C329.302 81.0354 330.894 82.7789 330.894 86.266C330.894 89.8289 329.302 91.6103 326.118 91.6103H270.401ZM209.365 104.118C202.694 104.118 197.804 102.45 194.696 99.1149C191.664 95.7794 190.148 91.4585 190.148 86.152V45.5579H206.636V84.219C206.636 88.7673 208.91 91.0415 213.458 91.0415H237.11C241.658 91.0415 243.932 88.7673 243.932 84.219V45.5579H260.42V86.152C260.42 91.4585 258.866 95.7794 255.758 99.1149C252.726 102.45 247.874 104.118 241.203 104.118H209.365Z" fill="black"/>
</svg>
