<svg width="1000" height="139" viewBox="0 0 1000 139" fill="none" xmlns="http://www.w3.org/2000/svg">
<path fill-rule="evenodd" clip-rule="evenodd" d="M132.568 0.0154626C136.825 0.0140486 141.105 0.012627 145.416 0.012627C127.933 23.2019 110.613 46.1643 93.2298 69.2024C110.474 92.1711 127.687 115.102 145.101 138.304H142.454C138.448 138.304 134.442 138.301 130.436 138.299C120.021 138.293 109.607 138.286 99.1922 138.323C95.2656 138.335 92.2781 136.823 89.9272 133.671C82.8373 124.152 75.7096 114.654 68.5821 105.156C66.0534 101.786 63.5247 98.4159 60.9977 95.0453C60.8563 94.8614 60.7108 94.6795 60.5492 94.4773C60.4228 94.3191 60.2864 94.1485 60.1342 93.9549C60.012 94.1002 59.894 94.2353 59.7805 94.3653C59.5839 94.5906 59.4008 94.8003 59.233 95.0201C57.5776 97.2262 55.9211 99.4311 54.2645 101.636C49.5317 107.935 44.7992 114.234 40.0979 120.56C38.1945 123.126 35.7931 124.311 32.5788 124.292C25.1859 124.237 17.7897 124.245 10.3951 124.254C7.67139 124.257 4.9479 124.26 2.22486 124.26H0.296228C0.469348 124.014 0.616999 123.801 0.750129 123.609C0.961122 123.304 1.13564 123.052 1.31727 122.804C3.65488 119.69 5.99229 116.574 8.32979 113.459C19.0761 99.137 29.8242 84.8125 40.6021 70.5134C41.3837 69.4734 41.3458 68.862 40.5832 67.8472C29.1559 52.7702 17.7619 37.6648 6.36807 22.5597C4.63408 20.2608 2.9001 17.9621 1.166 15.6634C0.98865 15.4258 0.81485 15.1864 0.614419 14.9103C0.437339 14.6664 0.239471 14.3939 0 14.0687H1.92863C4.7513 14.0687 7.57447 14.0746 10.398 14.0804C17.6934 14.0957 24.9911 14.1109 32.2888 14.0245C35.8247 13.9867 38.3394 15.3293 40.413 18.1405C44.821 24.1225 49.2924 30.0601 53.7642 35.9983C55.5969 38.432 57.4297 40.8658 59.2582 43.3027C59.4319 43.5328 59.6115 43.757 59.8178 44.0144C59.9109 44.1306 60.0095 44.2535 60.1153 44.3868C61.4049 42.6673 62.6874 40.9579 63.9656 39.2541C65.8735 36.7111 67.7719 34.1808 69.6703 31.6482C71.5938 29.088 73.5193 26.5299 75.4448 23.972C80.3267 17.4863 85.2078 11.0017 90.0533 4.48787C92.3348 1.42453 95.2782 -0.00628242 99.0788 2.0732e-05C110.19 0.0228953 121.299 0.0192056 132.568 0.0154626ZM121.435 126.254C121.248 126.018 121.138 125.878 121.031 125.735C118.541 122.417 116.05 119.098 113.56 115.78C102.244 100.699 90.9278 85.6185 79.5781 70.5638C78.7588 69.4734 78.8155 68.8242 79.6033 67.7842C90.9559 52.7914 102.279 37.773 113.6 22.7571C116.062 19.491 118.524 16.2249 120.987 12.9593C121.158 12.731 121.311 12.4895 121.495 12.1991C121.595 12.0404 121.705 11.8672 121.832 11.6735C120.03 11.6735 118.244 11.6751 116.47 11.6766C111.195 11.6814 106.025 11.686 100.856 11.6483C99.7468 11.6419 99.0661 11.9634 98.3918 12.8648C91.1815 22.5102 83.9471 32.1383 76.7141 41.7645C74.1912 45.1221 71.6685 48.4794 69.1471 51.8372C67.1395 54.5123 65.1332 57.1888 63.1244 59.8686C60.8261 62.9347 58.5245 66.005 56.214 69.0826C56.2537 69.1399 56.2926 69.1961 56.3309 69.2514C56.5536 69.5731 56.7542 69.8628 56.964 70.1478C62.7121 77.8251 68.4601 85.5023 74.2082 93.1733C82.2883 103.945 90.3684 114.717 98.4737 125.471C98.8455 125.956 99.4884 126.548 100.012 126.555C105.868 126.612 111.725 126.609 117.767 126.606C119.073 126.606 120.387 126.605 121.712 126.605C121.603 126.467 121.513 126.352 121.435 126.254ZM429.152 104.234H426.309H412.664H387.079C376.921 104.234 369 101.732 363.314 96.7289C357.629 91.7257 354.786 84.4862 354.786 75.0105C354.786 65.4589 357.629 58.1815 363.314 53.1783C369 48.1751 376.921 45.6735 387.079 45.6735H412.664V22.9317H429.152V104.234ZM412.664 58.7501V91.1571H387.079C382.152 91.1571 378.362 89.8305 375.708 87.1773C373.131 84.4483 371.842 80.3927 371.842 75.0105C371.842 69.5524 373.131 65.4968 375.708 62.8436C378.362 60.1146 382.152 58.7501 387.079 58.7501H412.664ZM694.116 104.802C683.958 104.802 676.036 102.3 670.351 97.2971C664.665 92.2181 661.823 84.7891 661.823 75.0101C661.823 65.1553 664.665 57.7263 670.351 52.7231C676.036 47.6441 683.958 45.1046 694.116 45.1046H715.152C725.31 45.1046 733.232 47.6441 738.917 52.7231C744.603 57.7263 747.446 65.1553 747.446 75.0101C747.446 84.7891 744.603 92.2181 738.917 97.2971C733.232 102.3 725.31 104.802 715.152 104.802H694.116ZM694.116 91.7253H715.152C720.08 91.7253 723.832 90.3608 726.409 87.6318C729.063 84.9028 730.389 80.6955 730.389 75.0101C730.389 69.2488 729.063 65.0037 726.409 62.2747C723.832 59.5456 720.08 58.1811 715.152 58.1811H694.116C689.189 58.1811 685.398 59.5456 682.745 62.2747C680.168 65.0037 678.879 69.2488 678.879 75.0101C678.879 80.6955 680.168 84.9028 682.745 87.6318C685.398 90.3608 689.189 91.7253 694.116 91.7253ZM869.899 104.802C859.741 104.802 851.819 102.3 846.134 97.2971C840.448 92.2181 837.606 84.7891 837.606 75.0101C837.606 65.1553 840.448 57.7263 846.134 52.7231C851.819 47.6441 859.741 45.1046 869.899 45.1046H898.326C904.997 45.1046 910.076 46.6965 913.563 49.8804C917.126 52.9884 918.908 57.461 918.908 63.2981C918.908 75.1996 912.047 81.1504 898.326 81.1504H855.344C856.936 88.2003 861.788 91.7253 869.899 91.7253H915.951V104.802H869.899ZM869.899 58.1811C862.091 58.1811 857.277 61.4787 855.458 68.0738H897.53C899.046 68.0738 900.221 67.619 901.055 66.7093C901.965 65.7997 902.42 64.5489 902.42 62.9569C902.42 59.7731 900.79 58.1811 897.53 58.1811H869.899ZM942.35 129.818V116.742H976.69C981.238 116.742 983.512 114.43 983.512 109.806V104.234H948.376C941.705 104.234 936.816 102.566 933.708 99.2308C930.675 95.8953 929.159 91.5743 929.159 86.2679V45.6738H945.647V84.3349C945.647 88.8832 947.921 91.1574 952.47 91.1574H982.944V45.6738H1000V111.852C1000 117.235 998.446 121.556 995.338 124.815C992.23 128.151 987.378 129.818 980.783 129.818H942.35ZM757.707 45.6738V104.234H774.195V58.7503H804.669C809.217 58.7503 811.491 61.0245 811.491 65.5729V104.234H827.979V63.6398C827.979 58.2576 826.425 53.9366 823.317 50.677C820.285 47.3415 815.433 45.6738 808.762 45.6738H757.707ZM556.94 45.6738V104.234H573.428V58.7503H596.283V104.234H612.771V58.7503H628.576C633.276 58.7503 635.626 61.0624 635.626 65.6866V104.234H652.114V63.6398C652.114 58.2576 650.56 53.9366 647.452 50.677C644.344 47.3415 639.455 45.6738 632.784 45.6738H556.94ZM525.416 104.234V87.9734H543.61V104.234H525.416ZM458.619 75.0102L436.56 104.233H455.89L472.833 81.4916H481.02L498.19 104.233H517.407L495.461 75.0102L517.407 45.7869H498.19L481.134 68.415H472.833L455.89 45.7869H436.56L458.619 75.0102ZM270.401 91.7253V104.802H329.075C334.912 104.802 339.422 103.172 342.606 99.9124C345.79 96.5769 347.382 91.9527 347.382 86.0399C347.382 80.2028 345.79 75.7681 342.606 72.7359C339.498 69.6279 334.987 68.0738 329.075 68.0738H290.868C289.428 68.0738 288.253 67.619 287.343 66.7093C286.434 65.7997 285.979 64.5489 285.979 62.9569C285.979 59.7731 287.609 58.1811 290.868 58.1811H341.924V45.1046H290.072C283.401 45.1046 278.285 46.6965 274.722 49.8804C271.235 52.9884 269.491 57.461 269.491 63.2981C269.491 69.0593 271.235 73.494 274.722 76.602C278.209 79.6343 283.326 81.1504 290.072 81.1504H326.118C329.302 81.1504 330.894 82.8939 330.894 86.381C330.894 89.9439 329.302 91.7253 326.118 91.7253H270.401ZM209.365 104.234C202.694 104.234 197.804 102.566 194.696 99.2308C191.664 95.8953 190.148 91.5743 190.148 86.2679V45.6738H206.636V84.3349C206.636 88.8832 208.91 91.1574 213.458 91.1574H237.11C241.658 91.1574 243.932 88.8832 243.932 84.3349V45.6738H260.42V86.2679C260.42 91.5743 258.866 95.8953 255.758 99.2308C252.726 102.566 247.874 104.234 241.203 104.234H209.365Z" fill="white"/>
</svg>
