<svg width="1000" height="139" viewBox="0 0 1000 139" fill="none" xmlns="http://www.w3.org/2000/svg">
<path fill-rule="evenodd" clip-rule="evenodd" d="M132.568 0.0154626C136.825 0.0140486 141.105 0.012627 145.416 0.012627C127.932 23.2019 110.613 46.1643 93.2297 69.2023C110.474 92.171 127.687 115.102 145.101 138.304H142.454C138.448 138.304 134.442 138.301 130.437 138.299C120.022 138.293 109.607 138.286 99.1921 138.323C95.2655 138.335 92.278 136.822 89.9271 133.671C82.8371 124.152 75.7094 114.653 68.5819 105.155C66.0532 101.785 63.5246 98.4158 60.9976 95.0452C60.8562 94.8613 60.7108 94.6794 60.5491 94.4772C60.4227 94.319 60.2863 94.1484 60.1342 93.9548C60.0119 94.1001 59.8939 94.2353 59.7804 94.3652C59.5838 94.5905 59.4007 94.8002 59.2329 95.02C57.5777 97.2259 55.9213 99.4306 54.2649 101.635C49.5319 107.935 44.7993 114.234 40.0979 120.56C38.1944 123.126 35.7931 124.311 32.5787 124.292C25.1859 124.237 17.7897 124.245 10.3951 124.254C7.67138 124.257 4.94789 124.26 2.22486 124.26H0.296227C0.469374 124.014 0.617044 123.801 0.75019 123.608C0.961155 123.304 1.13566 123.052 1.31727 122.804C3.65435 119.69 5.99124 116.576 8.32821 113.461C19.075 99.1383 29.8237 84.8131 40.6021 70.5133C41.3836 69.4733 41.3458 68.8619 40.5832 67.8471C29.1557 52.7699 17.7614 37.6641 6.36741 22.5588C4.63364 20.2602 2.89988 17.9617 1.166 15.6633C0.988647 15.4257 0.814846 15.1864 0.614413 14.9103C0.437335 14.6664 0.239469 14.3939 0 14.0686H1.92863C4.75129 14.0686 7.57444 14.0745 10.398 14.0804C17.6933 14.0956 24.9911 14.1109 32.2888 14.0245C35.8246 13.9867 38.3394 15.3293 40.413 18.1405C44.8208 24.1222 49.2919 30.0596 53.7636 35.9975C55.5965 38.4315 57.4294 40.8655 59.2581 43.3027C59.4318 43.5328 59.6115 43.757 59.8178 44.0144C59.9109 44.1306 60.0094 44.2535 60.1153 44.3868C61.4054 42.6665 62.6884 40.9564 63.9672 39.2519C65.8745 36.7097 67.7723 34.18 69.6702 31.6481C71.5938 29.0879 73.5194 26.5297 75.4449 23.9716C80.3267 17.4861 85.2078 11.0016 90.0531 4.48786C92.3347 1.42453 95.2781 -0.00628242 99.0786 2.0732e-05C110.19 0.0228953 121.299 0.0192056 132.568 0.0154626ZM121.435 126.254C121.248 126.017 121.138 125.878 121.031 125.735C118.54 122.416 116.049 119.097 113.558 115.777C102.242 100.697 90.9271 85.6177 79.578 70.5638C78.7587 69.4733 78.8154 68.8241 79.6032 67.7841C90.9557 52.7914 102.278 37.7731 113.599 22.7573C116.062 19.4911 118.524 16.225 120.987 12.9593C121.158 12.731 121.311 12.4895 121.495 12.1991C121.595 12.0404 121.705 11.8672 121.831 11.6735C120.029 11.6735 118.244 11.675 116.47 11.6766C111.195 11.6814 106.025 11.686 100.856 11.6482C99.7467 11.6419 99.066 11.9634 98.3916 12.8647C91.1807 22.5111 83.9456 32.1401 76.7119 41.7672C74.1897 45.1239 71.6678 48.4803 69.147 51.8371C67.1391 54.5126 65.1326 57.1894 63.1236 59.8695C60.8255 62.9353 58.5242 66.0053 56.2139 69.0825C56.2535 69.1397 56.2923 69.1957 56.3305 69.2509C56.5534 69.5727 56.754 69.8626 56.9639 70.1478C62.712 77.825 68.4601 85.5022 74.2081 93.1732C82.2882 103.945 90.3683 114.717 98.4736 125.471C98.8454 125.956 99.4883 126.548 100.011 126.555C105.868 126.612 111.725 126.609 117.767 126.606C119.073 126.606 120.387 126.605 121.712 126.605C121.603 126.467 121.512 126.352 121.435 126.254ZM429.151 104.234H426.309H412.663H387.079C376.921 104.234 368.999 101.732 363.314 96.7288C357.628 91.7256 354.786 84.4861 354.786 75.0104C354.786 65.4588 357.628 58.1815 363.314 53.1783C368.999 48.1751 376.921 45.6735 387.079 45.6735H412.663V22.9317H429.151V104.234ZM412.663 58.75V91.1571H387.079C382.152 91.1571 378.361 89.8305 375.708 87.1773C373.131 84.4482 371.842 80.3926 371.842 75.0104C371.842 69.5524 373.131 65.4968 375.708 62.8435C378.361 60.1145 382.152 58.75 387.079 58.75H412.663ZM694.115 104.802C683.957 104.802 676.035 102.3 670.35 97.297C664.665 92.218 661.822 84.789 661.822 75.01C661.822 65.1552 664.665 57.7263 670.35 52.7231C676.035 47.6441 683.957 45.1046 694.115 45.1046H715.151C725.309 45.1046 733.231 47.6441 738.917 52.7231C744.602 57.7263 747.445 65.1552 747.445 75.01C747.445 84.789 744.602 92.218 738.917 97.297C733.231 102.3 725.309 104.802 715.151 104.802H694.115ZM694.115 91.7252H715.151C720.079 91.7252 723.831 90.3607 726.409 87.6317C729.062 84.9027 730.388 80.6955 730.388 75.01C730.388 69.2488 729.062 65.0036 726.409 62.2746C723.831 59.5456 720.079 58.1811 715.151 58.1811H694.115C689.188 58.1811 685.398 59.5456 682.744 62.2746C680.167 65.0036 678.878 69.2488 678.878 75.01C678.878 80.6955 680.167 84.9027 682.744 87.6317C685.398 90.3607 689.188 91.7252 694.115 91.7252ZM869.898 104.802C859.74 104.802 851.818 102.3 846.133 97.297C840.447 92.218 837.605 84.789 837.605 75.01C837.605 65.1552 840.447 57.7263 846.133 52.7231C851.818 47.6441 859.74 45.1046 869.898 45.1046H898.325C904.996 45.1046 910.075 46.6965 913.562 49.8803C917.125 52.9884 918.907 57.4609 918.907 63.298C918.907 75.1995 912.046 81.1503 898.325 81.1503H855.343C856.935 88.2003 861.787 91.7252 869.898 91.7252H915.95V104.802H869.898ZM869.898 58.1811C862.09 58.1811 857.276 61.4787 855.457 68.0738H897.529C899.045 68.0738 900.22 67.6189 901.054 66.7093C901.964 65.7996 902.419 64.5488 902.419 62.9569C902.419 59.773 900.789 58.1811 897.529 58.1811H869.898ZM942.35 129.818V116.742H976.69C981.238 116.742 983.512 114.43 983.512 109.806V104.234H948.376C941.705 104.234 936.816 102.566 933.708 99.2307C930.675 95.8952 929.159 91.5743 929.159 86.2679V45.6738H945.647V84.3348C945.647 88.8832 947.921 91.1573 952.47 91.1573H982.944V45.6738H1000V111.852C1000 117.235 998.446 121.556 995.338 124.815C992.23 128.151 987.378 129.818 980.783 129.818H942.35ZM757.707 45.6738V104.234H774.195V58.7503H804.669C809.217 58.7503 811.492 61.0245 811.492 65.5728V104.234H827.979V63.6398C827.979 58.2575 826.425 53.9366 823.317 50.6769C820.285 47.3415 815.433 45.6738 808.763 45.6738H757.707ZM556.94 45.6738V104.234H573.428V58.7503H596.284V104.234H612.771V58.7503H628.577C633.277 58.7503 635.627 61.0624 635.627 65.6865V104.234H652.115V63.6398C652.115 58.2575 650.561 53.9366 647.453 50.6769C644.345 47.3415 639.455 45.6738 632.784 45.6738H556.94ZM525.417 104.234V87.9734H543.61V104.234H525.417ZM458.619 75.0101L436.559 104.233H455.89L472.832 81.4915H481.019L498.189 104.233H517.406L495.46 75.0101L517.406 45.7869H498.189L481.133 68.415H472.832L455.89 45.7869H436.559L458.619 75.0101ZM270.4 91.7252V104.802H329.074C334.911 104.802 339.422 103.172 342.606 99.9123C345.789 96.5768 347.381 91.9527 347.381 86.0398C347.381 80.2027 345.789 75.7681 342.606 72.7358C339.498 69.6278 334.987 68.0738 329.074 68.0738H290.868C289.428 68.0738 288.253 67.6189 287.343 66.7093C286.433 65.7996 285.979 64.5488 285.979 62.9569C285.979 59.773 287.608 58.1811 290.868 58.1811H341.923V45.1046H290.072C283.401 45.1046 278.284 46.6965 274.721 49.8803C271.234 52.9884 269.491 57.4609 269.491 63.298C269.491 69.0593 271.234 73.4939 274.721 76.6019C278.208 79.6342 283.325 81.1503 290.072 81.1503H326.118C329.302 81.1503 330.894 82.8938 330.894 86.3809C330.894 89.9438 329.302 91.7252 326.118 91.7252H270.4ZM209.364 104.234C202.693 104.234 197.804 102.566 194.696 99.2307C191.664 95.8952 190.148 91.5743 190.148 86.2679V45.6738H206.635V84.3348C206.635 88.8832 208.91 91.1573 213.458 91.1573H237.109C241.658 91.1573 243.932 88.8832 243.932 84.3348V45.6738H260.42V86.2679C260.42 91.5743 258.866 95.8952 255.758 99.2307C252.725 102.566 247.874 104.234 241.203 104.234H209.364Z" fill="url(#paint0_linear_2754_369)"/>
<defs>
<linearGradient id="paint0_linear_2754_369" x1="3.65488e-07" y1="69.1614" x2="912.684" y2="351.459" gradientUnits="userSpaceOnUse">
<stop stop-color="#207B56"/>
<stop offset="1" stop-color="#99BEB2"/>
</linearGradient>
</defs>
</svg>
